<svg width="16" height="16" viewBox="0 0 16 16" fill="none" xmlns="http://www.w3.org/2000/svg">
<path d="M14.537 6.69437H14V6.66671H8.00004V9.33337H11.7677C11.218 10.8857 9.74104 12 8.00004 12C5.79104 12 4.00004 10.209 4.00004 8.00004C4.00004 5.79104 5.79104 4.00004 8.00004 4.00004C9.01971 4.00004 9.94737 4.38471 10.6537 5.01304L12.5394 3.12737C11.3487 2.01771 9.75604 1.33337 8.00004 1.33337C4.31837 1.33337 1.33337 4.31837 1.33337 8.00004C1.33337 11.6817 4.31837 14.6667 8.00004 14.6667C11.6817 14.6667 14.6667 11.6817 14.6667 8.00004C14.6667 7.55304 14.6207 7.11671 14.537 6.69437Z" fill="#FFC107"/>
<path d="M2.10193 4.89704L4.29226 6.50337C4.88493 5.03604 6.32026 4.00004 7.99993 4.00004C9.0196 4.00004 9.94726 4.38471 10.6536 5.01304L12.5393 3.12737C11.3486 2.01771 9.75593 1.33337 7.99993 1.33337C5.43926 1.33337 3.2186 2.77904 2.10193 4.89704Z" fill="#FF3D00"/>
<path d="M8.00006 14.6667C9.72206 14.6667 11.2867 14.0077 12.4697 12.936L10.4064 11.19C9.71458 11.7161 8.86922 12.0007 8.00006 12C6.26606 12 4.79373 10.8943 4.23906 9.35132L2.06506 11.0263C3.1684 13.1853 5.40906 14.6667 8.00006 14.6667Z" fill="#4CAF50"/>
<path d="M14.537 6.69429H14V6.66663H8V9.33329H11.7677C11.5047 10.0721 11.0311 10.7177 10.4053 11.1903L10.4063 11.1896L12.4697 12.9356C12.3237 13.0683 14.6667 11.3333 14.6667 7.99996C14.6667 7.55296 14.6207 7.11663 14.537 6.69429Z" fill="#1976D2"/>
</svg>
